<svg xmlns="http://www.w3.org/2000/svg" width="32" height="32" viewBox="0 0 32 32">
  <rect width="32" height="32" rx="13" ry="13" fill="#E78A53"/>
  <g transform="translate(4, 4)" stroke="#121114" stroke-width="2" stroke-linecap="round" stroke-linejoin="round" fill="none">
    <path d="M12 16H4a2 2 0 1 1 0-4h16a2 2 0 1 1 0 4h-4.25"/>
    <path d="M5 12a2 2 0 0 1-2-2 9 7 0 0 1 18 0 2 2 0 0 1-2 2"/>
    <path d="M5 16a2 2 0 0 0-2 2 3 3 0 0 0 3 3h12a3 3 0 0 0 3-3 2 2 0 0 0-2-2"/>
    <path d="m6.67 12 6.13 4.6a2 2 0 0 0 2.8-.4l3.15-4.2"/>
  </g>
</svg>
